<svg xmlns="http://www.w3.org/2000/svg" viewBox="0 0 480 8" fill="currentColor" aria-hidden="true">
  <g opacity="0.5">
    <circle cx="4" cy="4" r="1.5"/><circle cx="28" cy="4" r="1.5"/><circle cx="52" cy="4" r="1.5"/>
    <circle cx="76" cy="4" r="1.5"/><circle cx="100" cy="4" r="1.5"/><circle cx="124" cy="4" r="1.5"/>
    <circle cx="148" cy="4" r="1.5"/><circle cx="172" cy="4" r="1.5"/><circle cx="196" cy="4" r="1.5"/>
    <circle cx="220" cy="4" r="1.5"/><circle cx="244" cy="4" r="1.5"/><circle cx="268" cy="4" r="1.5"/>
    <circle cx="292" cy="4" r="1.5"/><circle cx="316" cy="4" r="1.5"/><circle cx="340" cy="4" r="1.5"/>
    <circle cx="364" cy="4" r="1.5"/><circle cx="388" cy="4" r="1.5"/><circle cx="412" cy="4" r="1.5"/>
    <circle cx="436" cy="4" r="1.5"/><circle cx="460" cy="4" r="1.5"/>
  </g>
</svg>
